<svg width="100" height="35" viewBox="0 0 100 35" fill="none" xmlns="http://www.w3.org/2000/svg">
<path fill-rule="evenodd" clip-rule="evenodd" d="M34.2 0.8H0.8V34.2H34.2V0.8ZM0 0V35H35V0H0Z" fill="black"/>
<path d="M28 10H43V25H28V10Z" fill="white"/>
<path d="M17.264 21V20.88L17.504 20.796C17.664 20.748 17.768 20.676 17.816 20.58C17.872 20.484 17.9 20.356 17.9 20.196V13.908C17.9 13.748 17.872 13.62 17.816 13.524C17.76 13.428 17.652 13.352 17.492 13.296L17.264 13.2V13.08H20.18C21.372 13.08 22.232 13.3 22.76 13.74C23.296 14.172 23.564 14.744 23.564 15.456C23.564 15.912 23.452 16.332 23.228 16.716C23.012 17.092 22.652 17.392 22.148 17.616C21.644 17.84 20.964 17.952 20.108 17.952H19.7V20.16C19.7 20.472 19.856 20.676 20.168 20.772L20.528 20.88V21H17.264ZM19.7 17.712H20.156C20.548 17.712 20.868 17.648 21.116 17.52C21.364 17.392 21.548 17.168 21.668 16.848C21.788 16.528 21.848 16.084 21.848 15.516C21.848 14.94 21.78 14.492 21.644 14.172C21.516 13.852 21.324 13.632 21.068 13.512C20.812 13.384 20.492 13.32 20.108 13.32H19.7V17.712ZM26.8268 21.18C26.2188 21.18 25.6908 21.056 25.2428 20.808C24.7948 20.552 24.4468 20.192 24.1988 19.728C23.9588 19.264 23.8388 18.72 23.8388 18.096C23.8388 17.472 23.9668 16.932 24.2228 16.476C24.4868 16.02 24.8428 15.668 25.2908 15.42C25.7468 15.172 26.2588 15.048 26.8268 15.048C27.3948 15.048 27.9028 15.172 28.3508 15.42C28.7988 15.66 29.1508 16.008 29.4068 16.464C29.6708 16.92 29.8028 17.464 29.8028 18.096C29.8028 18.728 29.6788 19.276 29.4308 19.74C29.1908 20.196 28.8468 20.552 28.3988 20.808C27.9588 21.056 27.4348 21.18 26.8268 21.18ZM26.8268 20.94C27.1068 20.94 27.3308 20.86 27.4988 20.7C27.6668 20.54 27.7868 20.256 27.8588 19.848C27.9388 19.44 27.9788 18.864 27.9788 18.12C27.9788 17.368 27.9388 16.788 27.8588 16.38C27.7868 15.972 27.6668 15.688 27.4988 15.528C27.3308 15.368 27.1068 15.288 26.8268 15.288C26.5468 15.288 26.3188 15.368 26.1428 15.528C25.9748 15.688 25.8508 15.972 25.7708 16.38C25.6988 16.788 25.6628 17.368 25.6628 18.12C25.6628 18.864 25.6988 19.44 25.7708 19.848C25.8508 20.256 25.9748 20.54 26.1428 20.7C26.3188 20.86 26.5468 20.94 26.8268 20.94ZM32.7195 21.036L30.8715 15.96C30.7835 15.704 30.6075 15.524 30.3435 15.42L30.1395 15.348V15.228H33.0795V15.348L32.8995 15.396C32.5875 15.492 32.4835 15.684 32.5875 15.972L33.7035 19.368L34.6995 16.728L34.4715 16.044C34.4155 15.868 34.3555 15.736 34.2915 15.648C34.2355 15.552 34.1595 15.484 34.0635 15.444L33.8595 15.348V15.228H36.3435V15.348L36.1755 15.42C36.0555 15.468 35.9835 15.532 35.9595 15.612C35.9355 15.692 35.9515 15.812 36.0075 15.972L37.1115 19.308L38.2515 15.996C38.3635 15.692 38.3035 15.5 38.0715 15.42L37.8075 15.348V15.228H39.2475V15.348L38.9595 15.432C38.8235 15.472 38.7235 15.536 38.6595 15.624C38.6035 15.704 38.5515 15.816 38.5035 15.96L36.7755 21.036H36.1635L34.8315 17.112L33.4155 21.036H32.7195ZM42.3301 15.048C42.8501 15.048 43.2941 15.156 43.6621 15.372C44.0301 15.58 44.3101 15.868 44.5021 16.236C44.7021 16.596 44.8021 17.008 44.8021 17.472C44.8021 17.56 44.7981 17.652 44.7901 17.748C44.7821 17.836 44.7661 17.916 44.7421 17.988H41.1661C41.1741 18.852 41.3261 19.476 41.6221 19.86C41.9261 20.236 42.3741 20.424 42.9661 20.424C43.3661 20.424 43.6901 20.36 43.9381 20.232C44.1861 20.104 44.4181 19.916 44.6341 19.668L44.7541 19.776C44.5061 20.216 44.1741 20.56 43.7581 20.808C43.3501 21.056 42.8581 21.18 42.2821 21.18C41.7141 21.18 41.2101 21.06 40.7701 20.82C40.3301 20.572 39.9861 20.22 39.7381 19.764C39.4901 19.308 39.3661 18.764 39.3661 18.132C39.3661 17.476 39.5101 16.92 39.7981 16.464C40.0861 16 40.4541 15.648 40.9021 15.408C41.3581 15.168 41.8341 15.048 42.3301 15.048ZM42.2941 15.288C42.0621 15.288 41.8621 15.36 41.6941 15.504C41.5341 15.64 41.4061 15.888 41.3101 16.248C41.2221 16.6 41.1741 17.1 41.1661 17.748H43.2181C43.2981 16.876 43.2661 16.248 43.1221 15.864C42.9781 15.48 42.7021 15.288 42.2941 15.288ZM45.4002 21V20.88L45.5802 20.832C45.7402 20.784 45.8482 20.712 45.9042 20.616C45.9682 20.52 46.0002 20.396 46.0002 20.244V16.488C46.0002 16.312 45.9682 16.184 45.9042 16.104C45.8482 16.016 45.7402 15.956 45.5802 15.924L45.4002 15.876V15.756L47.4642 15.06L47.5842 15.18L47.6922 16.212V16.308C47.8042 16.084 47.9482 15.88 48.1242 15.696C48.3082 15.504 48.5082 15.348 48.7242 15.228C48.9482 15.108 49.1682 15.048 49.3842 15.048C49.6882 15.048 49.9202 15.132 50.0802 15.3C50.2402 15.468 50.3202 15.68 50.3202 15.936C50.3202 16.208 50.2402 16.42 50.0802 16.572C49.9282 16.716 49.7442 16.788 49.5282 16.788C49.1922 16.788 48.8962 16.62 48.6402 16.284L48.6162 16.26C48.5362 16.148 48.4442 16.088 48.3402 16.08C48.2362 16.064 48.1402 16.112 48.0522 16.224C47.9722 16.296 47.9042 16.384 47.8482 16.488C47.8002 16.584 47.7522 16.696 47.7042 16.824V20.172C47.7042 20.492 47.8442 20.692 48.1242 20.772L48.5082 20.88V21H45.4002ZM53.5215 15.048C54.0415 15.048 54.4855 15.156 54.8535 15.372C55.2215 15.58 55.5015 15.868 55.6935 16.236C55.8935 16.596 55.9935 17.008 55.9935 17.472C55.9935 17.56 55.9895 17.652 55.9815 17.748C55.9735 17.836 55.9575 17.916 55.9335 17.988H52.3575C52.3655 18.852 52.5175 19.476 52.8135 19.86C53.1175 20.236 53.5655 20.424 54.1575 20.424C54.5575 20.424 54.8815 20.36 55.1295 20.232C55.3775 20.104 55.6095 19.916 55.8255 19.668L55.9455 19.776C55.6975 20.216 55.3655 20.56 54.9495 20.808C54.5415 21.056 54.0495 21.18 53.4735 21.18C52.9055 21.18 52.4015 21.06 51.9615 20.82C51.5215 20.572 51.1775 20.22 50.9295 19.764C50.6815 19.308 50.5575 18.764 50.5575 18.132C50.5575 17.476 50.7015 16.92 50.9895 16.464C51.2775 16 51.6455 15.648 52.0935 15.408C52.5495 15.168 53.0255 15.048 53.5215 15.048ZM53.4855 15.288C53.2535 15.288 53.0535 15.36 52.8855 15.504C52.7255 15.64 52.5975 15.888 52.5015 16.248C52.4135 16.6 52.3655 17.1 52.3575 17.748H54.4095C54.4895 16.876 54.4575 16.248 54.3135 15.864C54.1695 15.48 53.8935 15.288 53.4855 15.288ZM59.1356 21.18C58.6636 21.18 58.2396 21.076 57.8636 20.868C57.4876 20.652 57.1876 20.324 56.9636 19.884C56.7476 19.436 56.6396 18.864 56.6396 18.168C56.6396 17.464 56.7636 16.884 57.0116 16.428C57.2596 15.964 57.5876 15.62 57.9956 15.396C58.4036 15.164 58.8476 15.048 59.3276 15.048C59.6076 15.048 59.8756 15.076 60.1316 15.132C60.3876 15.188 60.6156 15.272 60.8156 15.384V13.824C60.8156 13.656 60.7876 13.532 60.7316 13.452C60.6836 13.372 60.5756 13.316 60.4076 13.284L60.1796 13.236V13.116L62.3636 12.588L62.4956 12.696L62.4476 14.376V20.244C62.4476 20.404 62.4756 20.536 62.5316 20.64C62.5876 20.736 62.6916 20.804 62.8436 20.844L62.9516 20.88V21L60.8996 21.132L60.7916 20.7C60.5756 20.844 60.3276 20.96 60.0476 21.048C59.7756 21.136 59.4716 21.18 59.1356 21.18ZM59.8316 20.736C60.1676 20.736 60.4756 20.636 60.7556 20.436V15.672C60.4596 15.48 60.1556 15.384 59.8436 15.384C59.4596 15.384 59.1316 15.608 58.8596 16.056C58.5876 16.496 58.4516 17.192 58.4516 18.144C58.4516 19.096 58.5796 19.768 58.8356 20.16C59.0916 20.544 59.4236 20.736 59.8316 20.736ZM67.5639 21.216C66.7879 21.216 66.0839 21.06 65.4519 20.748C64.8279 20.428 64.3319 19.956 63.9639 19.332C63.5959 18.708 63.4119 17.944 63.4119 17.04C63.4119 16.352 63.5239 15.748 63.7479 15.228C63.9719 14.708 64.2759 14.272 64.6599 13.92C65.0519 13.568 65.4999 13.304 66.0039 13.128C66.5159 12.952 67.0559 12.864 67.6239 12.864C68.0799 12.864 68.4999 12.916 68.8839 13.02C69.2679 13.124 69.6279 13.268 69.9639 13.452L70.0119 14.928H69.8919L69.2919 13.968C69.2119 13.816 69.1239 13.68 69.0279 13.56C68.9319 13.432 68.8119 13.336 68.6679 13.272C68.5479 13.216 68.4279 13.176 68.3079 13.152C68.1959 13.12 68.0519 13.104 67.8759 13.104C67.4119 13.104 66.9879 13.228 66.6039 13.476C66.2279 13.724 65.9239 14.136 65.6919 14.712C65.4679 15.28 65.3559 16.06 65.3559 17.052C65.3559 18.036 65.4639 18.816 65.6799 19.392C65.8959 19.96 66.1879 20.368 66.5559 20.616C66.9319 20.856 67.3519 20.976 67.8159 20.976C68.0719 20.976 68.2759 20.96 68.4279 20.928C68.5799 20.888 68.7319 20.832 68.8839 20.76C69.0359 20.696 69.1519 20.604 69.2319 20.484C69.3119 20.356 69.3839 20.22 69.4479 20.076L69.9759 18.9H70.0959L70.0599 20.616C69.7239 20.792 69.3479 20.936 68.9319 21.048C68.5159 21.16 68.0599 21.216 67.5639 21.216ZM72.0823 14.424C71.8103 14.424 71.5783 14.34 71.3863 14.172C71.2023 13.996 71.1103 13.776 71.1103 13.512C71.1103 13.24 71.2023 13.02 71.3863 12.852C71.5783 12.684 71.8103 12.6 72.0823 12.6C72.3543 12.6 72.5823 12.684 72.7663 12.852C72.9503 13.02 73.0423 13.24 73.0423 13.512C73.0423 13.776 72.9503 13.996 72.7663 14.172C72.5823 14.34 72.3543 14.424 72.0823 14.424ZM70.6663 21V20.88L70.8343 20.832C70.9943 20.784 71.1023 20.712 71.1583 20.616C71.2223 20.52 71.2543 20.392 71.2543 20.232V16.476C71.2543 16.308 71.2223 16.184 71.1583 16.104C71.1023 16.016 70.9943 15.956 70.8343 15.924L70.6663 15.888V15.768L72.8623 15.06L72.9823 15.18L72.9463 16.884V20.244C72.9463 20.404 72.9743 20.532 73.0303 20.628C73.0943 20.724 73.2023 20.796 73.3543 20.844L73.4743 20.88V21H70.6663ZM76.2856 21.18C75.7736 21.18 75.3736 21.052 75.0856 20.796C74.8056 20.54 74.6656 20.132 74.6656 19.572V15.468H73.8376V15.348L74.1256 15.3C74.3736 15.244 74.5856 15.164 74.7616 15.06C74.9456 14.956 75.1256 14.816 75.3016 14.64L76.2856 13.548H76.4056L76.3696 15.228H77.7136V15.468H76.3576V19.788C76.3576 20.068 76.4176 20.28 76.5376 20.424C76.6656 20.568 76.8256 20.64 77.0176 20.64C77.1856 20.64 77.3336 20.6 77.4616 20.52C77.5896 20.432 77.7176 20.316 77.8456 20.172L77.9656 20.292C77.8056 20.564 77.5856 20.78 77.3056 20.94C77.0256 21.1 76.6856 21.18 76.2856 21.18ZM79.7816 14.424C79.5096 14.424 79.2776 14.34 79.0856 14.172C78.9016 13.996 78.8096 13.776 78.8096 13.512C78.8096 13.24 78.9016 13.02 79.0856 12.852C79.2776 12.684 79.5096 12.6 79.7816 12.6C80.0536 12.6 80.2816 12.684 80.4656 12.852C80.6496 13.02 80.7416 13.24 80.7416 13.512C80.7416 13.776 80.6496 13.996 80.4656 14.172C80.2816 14.34 80.0536 14.424 79.7816 14.424ZM78.3656 21V20.88L78.5336 20.832C78.6936 20.784 78.8016 20.712 78.8576 20.616C78.9216 20.52 78.9536 20.392 78.9536 20.232V16.476C78.9536 16.308 78.9216 16.184 78.8576 16.104C78.8016 16.016 78.6936 15.956 78.5336 15.924L78.3656 15.888V15.768L80.5616 15.06L80.6816 15.18L80.6456 16.884V20.244C80.6456 20.404 80.6736 20.532 80.7296 20.628C80.7936 20.724 80.9016 20.796 81.0536 20.844L81.1736 20.88V21H78.3656ZM81.7408 21V20.808L85.0168 15.468H83.2048C82.9968 15.468 82.8328 15.524 82.7128 15.636C82.5928 15.748 82.4808 15.896 82.3768 16.08L81.9448 16.884H81.8248L81.9088 15.228H86.7088V15.396L83.5048 20.76H85.3888C85.6448 20.76 85.8328 20.7 85.9528 20.58C86.0728 20.46 86.1848 20.296 86.2888 20.088L86.7088 19.2H86.8288L86.7208 21H81.7408ZM90.295 15.048C90.815 15.048 91.259 15.156 91.627 15.372C91.995 15.58 92.275 15.868 92.467 16.236C92.667 16.596 92.767 17.008 92.767 17.472C92.767 17.56 92.763 17.652 92.755 17.748C92.747 17.836 92.731 17.916 92.707 17.988H89.131C89.139 18.852 89.291 19.476 89.587 19.86C89.891 20.236 90.339 20.424 90.931 20.424C91.331 20.424 91.655 20.36 91.903 20.232C92.151 20.104 92.383 19.916 92.599 19.668L92.719 19.776C92.471 20.216 92.139 20.56 91.723 20.808C91.315 21.056 90.823 21.18 90.247 21.18C89.679 21.18 89.175 21.06 88.735 20.82C88.295 20.572 87.951 20.22 87.703 19.764C87.455 19.308 87.331 18.764 87.331 18.132C87.331 17.476 87.475 16.92 87.763 16.464C88.051 16 88.419 15.648 88.867 15.408C89.323 15.168 89.799 15.048 90.295 15.048ZM90.259 15.288C90.027 15.288 89.827 15.36 89.659 15.504C89.499 15.64 89.371 15.888 89.275 16.248C89.187 16.6 89.139 17.1 89.131 17.748H91.183C91.263 16.876 91.231 16.248 91.087 15.864C90.943 15.48 90.667 15.288 90.259 15.288ZM93.365 21V20.88L93.533 20.832C93.813 20.752 93.953 20.556 93.953 20.244V16.488C93.953 16.312 93.925 16.184 93.869 16.104C93.813 16.016 93.705 15.956 93.545 15.924L93.365 15.876V15.756L95.417 15.06L95.537 15.18L95.633 15.9C95.913 15.652 96.229 15.448 96.581 15.288C96.933 15.128 97.281 15.048 97.625 15.048C98.153 15.048 98.557 15.192 98.837 15.48C99.125 15.768 99.269 16.208 99.269 16.8V20.256C99.269 20.568 99.421 20.764 99.725 20.844L99.833 20.88V21H97.001V20.88L97.157 20.832C97.437 20.744 97.577 20.548 97.577 20.244V16.416C97.577 15.904 97.321 15.648 96.809 15.648C96.457 15.648 96.073 15.824 95.657 16.176V20.256C95.657 20.568 95.797 20.764 96.077 20.844L96.185 20.88V21H93.365Z" fill="black"/>
</svg>
